<svg width="64" height="64" viewBox="0 0 64 64" fill="none" xmlns="http://www.w3.org/2000/svg">
<circle cx="32" cy="32" r="30.5" fill="white" stroke="#C8C8C8" stroke-width="3"/>
<path d="M42.6666 16.762H27.4285C25.7477 16.762 24.3809 18.1288 24.3809 19.8096V28.9524H21.3333C19.6525 28.9524 18.2856 30.3193 18.2856 32.0001V45.7143C18.2856 46.5555 18.9668 47.2382 19.8095 47.2382H31.9999H44.1904C45.0331 47.2382 45.7142 46.5555 45.7142 45.7143V19.8096C45.7142 18.1288 44.3474 16.762 42.6666 16.762ZM21.3333 32.0001H25.9047H30.4761V35.0477V38.0953V44.1905H21.3333V32.0001ZM42.6666 44.1905H33.5237V38.0953V35.0477V32.0001C33.5237 30.3193 32.1569 28.9524 30.4761 28.9524H27.4285V19.8096H42.6666V44.1905Z" fill="#C8C8C8"/>
<path d="M30.4761 22.8572H33.5237V25.9048H30.4761V22.8572ZM36.5713 22.8572H39.619V25.9048H36.5713V22.8572ZM36.5713 28.9997H39.619V32H36.5713V28.9997ZM36.5713 35.0477H39.619V38.0953H36.5713V35.0477ZM24.3809 35.0492H27.4285V38.0968H24.3809V35.0492Z" fill="#C8C8C8"/>
</svg>
